<svg width="10" height="10" viewBox="0 0 10 10" fill="none" xmlns="http://www.w3.org/2000/svg">
<path d="M1.11111 10H8.88888C9.18357 10 9.46618 9.88294 9.67455 9.67456C9.88293 9.46619 9.99999 9.18357 9.99999 8.88889V2.77778C10.0004 2.70467 9.9864 2.63219 9.95875 2.5645C9.93111 2.49682 9.89037 2.43525 9.83888 2.38334L7.61666 0.16112C7.56475 0.109631 7.50318 0.0688944 7.4355 0.0412474C7.36781 0.0136005 7.29533 -0.000413432 7.22222 9.28571e-06H1.11111C0.816425 9.28571e-06 0.53381 0.117072 0.325437 0.325446C0.117063 0.533819 0 0.816435 0 1.11112V8.88889C0 9.18357 0.117063 9.46619 0.325437 9.67456C0.53381 9.88294 0.816425 10 1.11111 10ZM6.66666 8.88889H3.33333V6.11112H6.66666V8.88889ZM5.55555 2.22223H4.44444V1.11112H5.55555V2.22223ZM1.11111 1.11112H2.22222V3.33334H6.66666V1.11112H6.99444L8.88888 3.00556V8.88889H7.77777V6.11112C7.77777 5.81643 7.66071 5.53382 7.45233 5.32544C7.24396 5.11707 6.96135 5 6.66666 5H3.33333C3.03865 5 2.75603 5.11707 2.54766 5.32544C2.33928 5.53382 2.22222 5.81643 2.22222 6.11112V8.88889H1.11111V1.11112Z" fill="#699BF7"/>
</svg>
