<svg width="1000" height="1000" viewBox="0 0 1000 1000" fill="none" xmlns="http://www.w3.org/2000/svg">
<path d="M1000 0H0V1000H1000V0Z" fill="url(#paint0_linear_847_1116)"/>
<path opacity="0.19" d="M643.4 405.1H385.4V486.6H367.4V356.6C367.4 346.7 359.3 338.6 349.4 338.6H320.2V356.6H349.4V418H337.4C333 418 329.4 421.6 329.4 426V474C329.4 478.4 333 482 337.4 482H349.4V508.1H337.4C333 508.1 329.4 511.7 329.4 516.1V554.1C329.4 558.5 333 562.1 337.4 562.1H349.4V625.6C349.4 630.6 353.4 634.6 358.4 634.6C363.4 634.6 367.4 630.6 367.4 625.6V585.1H392.5V596.4C392.5 600.3 395.6 603.4 399.5 603.4C403.4 603.4 406.5 600.3 406.5 596.4V585.1H422V607.1C422 612.6 426.5 617.1 432 617.1H476C481.5 617.1 486 612.6 486 607.1V585.1H506.2V607.1C506.2 612.6 510.7 617.1 516.2 617.1H628.2C633.7 617.1 638.2 612.6 638.2 607.1V585.1H643.4C655.6 585.1 665.4 575.3 665.4 563.1V427.1C665.4 415 655.6 405.1 643.4 405.1Z" fill="#2D2D2D" stroke="#2D2D2D" stroke-width="6" stroke-miterlimit="10"/>
<path d="M346.4 406V470H334.4C330 470 326.4 466.4 326.4 462V414C326.4 409.6 330 406 334.4 406H346.4Z" fill="#B4D8ED"/>
<path d="M346.4 496.1V550.1H334.4C330 550.1 326.4 546.5 326.4 542.1V504.1C326.4 499.7 330 496.1 334.4 496.1H346.4Z" fill="#B4D8ED"/>
<path opacity="0.73" d="M337.807 406.044L337.807 470.044L346.407 470.044L346.407 406.044L337.807 406.044Z" fill="#7BA9BF"/>
<path opacity="0.73" d="M337.853 496.098L337.853 550.098L346.453 550.098L346.453 496.098L337.853 496.098Z" fill="#7BA9BF"/>
<path d="M346.4 406V470H334.4C330 470 326.4 466.4 326.4 462V414C326.4 409.6 330 406 334.4 406H346.4Z" stroke="#2D2D2D" stroke-width="6" stroke-miterlimit="10" stroke-linecap="round" stroke-linejoin="round"/>
<path d="M346.4 496.1V550.1H334.4C330 550.1 326.4 546.5 326.4 542.1V504.1C326.4 499.7 330 496.1 334.4 496.1H346.4Z" stroke="#2D2D2D" stroke-width="6" stroke-miterlimit="10" stroke-linecap="round" stroke-linejoin="round"/>
<path d="M346.4 326.6H317.2V344.6H346.4V613.6C346.4 618.6 350.4 622.6 355.4 622.6C360.4 622.6 364.4 618.6 364.4 613.6V344.6C364.4 334.7 356.4 326.6 346.4 326.6Z" fill="#4F5C68"/>
<path d="M346.4 326.6H317.2V344.6H346.4V613.6C346.4 618.6 350.4 622.6 355.4 622.6C360.4 622.6 364.4 618.6 364.4 613.6V344.6C364.4 334.7 356.4 326.6 346.4 326.6Z" stroke="#2D2D2D" stroke-width="6" stroke-miterlimit="10" stroke-linecap="round" stroke-linejoin="round"/>
<path d="M513.2 605.1H625.2C630.7 605.1 635.2 600.6 635.2 595.1V573.1H503.2V595.1C503.2 600.6 507.7 605.1 513.2 605.1Z" fill="#35BC6C"/>
<path d="M503.296 583.311L635.296 583.311L635.296 574.111L503.296 574.111L503.296 583.311Z" fill="#2AA85D"/>
<path d="M628.3 605.1H621.3V591.1C621.3 590 622.2 589.1 623.3 589.1H626.3C627.4 589.1 628.3 590 628.3 591.1V605.1Z" fill="#FFC661"/>
<path d="M616.3 605.1H609.3V591.1C609.3 590 610.2 589.1 611.3 589.1H614.3C615.4 589.1 616.3 590 616.3 591.1V605.1Z" fill="#FFC661"/>
<path d="M604.3 605.1H597.3V591.1C597.3 590 598.2 589.1 599.3 589.1H602.3C603.4 589.1 604.3 590 604.3 591.1V605.1Z" fill="#FFC661"/>
<path d="M592.3 605.1H585.3V591.1C585.3 590 586.2 589.1 587.3 589.1H590.3C591.4 589.1 592.3 590 592.3 591.1V605.1Z" fill="#FFC661"/>
<path d="M580.3 605.1H573.3V591.1C573.3 590 574.2 589.1 575.3 589.1H578.3C579.4 589.1 580.3 590 580.3 591.1V605.1Z" fill="#FFC661"/>
<path d="M568.3 605.1H561.3V591.1C561.3 590 562.2 589.1 563.3 589.1H566.3C567.4 589.1 568.3 590 568.3 591.1V605.1Z" fill="#FFC661"/>
<path d="M556.3 605.1H549.3V591.1C549.3 590 550.2 589.1 551.3 589.1H554.3C555.4 589.1 556.3 590 556.3 591.1V605.1Z" fill="#FFC661"/>
<path d="M544.3 605.1H537.3V591.1C537.3 590 538.2 589.1 539.3 589.1H542.3C543.4 589.1 544.3 590 544.3 591.1V605.1Z" fill="#FFC661"/>
<path d="M532.3 605.1H525.3V591.1C525.3 590 526.2 589.1 527.3 589.1H530.3C531.4 589.1 532.3 590 532.3 591.1V605.1Z" fill="#FFC661"/>
<path d="M520.3 605.1H513.3V591.1C513.3 590 514.2 589.1 515.3 589.1H518.3C519.4 589.1 520.3 590 520.3 591.1V605.1Z" fill="#FFC661"/>
<path d="M513.2 605.1H625.2C630.7 605.1 635.2 600.6 635.2 595.1V573.1H503.2V595.1C503.2 600.6 507.7 605.1 513.2 605.1Z" stroke="#2D2D2D" stroke-width="6" stroke-miterlimit="10" stroke-linecap="round" stroke-linejoin="round"/>
<path d="M429 605.1H473C478.5 605.1 483 600.6 483 595.1V573.1H419V595.1C419 600.6 423.5 605.1 429 605.1Z" fill="#35BC6C"/>
<path d="M419 583.311L483 583.311L483 574.111L419 574.111L419 583.311Z" fill="#2AA85D"/>
<path d="M472.801 605.1H465.801V591.1C465.801 590 466.701 589.1 467.801 589.1H470.801C471.901 589.1 472.801 590 472.801 591.1V605.1Z" fill="#FFC661"/>
<path d="M460.801 605.1H453.801V591.1C453.801 590 454.701 589.1 455.801 589.1H458.801C459.901 589.1 460.801 590 460.801 591.1V605.1Z" fill="#FFC661"/>
<path d="M448.801 605.1H441.801V591.1C441.801 590 442.701 589.1 443.801 589.1H446.801C447.901 589.1 448.801 590 448.801 591.1V605.1Z" fill="#FFC661"/>
<path d="M436.801 605.1H429.801V591.1C429.801 590 430.701 589.1 431.801 589.1H434.801C435.901 589.1 436.801 590 436.801 591.1V605.1Z" fill="#FFC661"/>
<path d="M429 605.1H473C478.5 605.1 483 600.6 483 595.1V573.1H419V595.1C419 600.6 423.5 605.1 429 605.1Z" stroke="#2D2D2D" stroke-width="6" stroke-miterlimit="10" stroke-linecap="round" stroke-linejoin="round"/>
<path d="M640.4 393.1H382.4V474.6H364.4V573.1H640.4C652.6 573.1 662.4 563.3 662.4 551.1V415.1C662.4 403 652.6 393.1 640.4 393.1Z" fill="#3C4652"/>
<path d="M640.4 393.1H633.1C645.3 393.1 655.1 402.9 655.1 415.1V551.1C655.1 563.3 645.3 573.1 633.1 573.1H640.4C652.6 573.1 662.4 563.3 662.4 551.1V415.1C662.4 403 652.6 393.1 640.4 393.1Z" fill="#363F49"/>
<path d="M640.4 565.2H364.4V573.1H640.4C652.6 573.1 662.4 563.3 662.4 551.1V543.2C662.4 555.4 652.6 565.2 640.4 565.2Z" fill="#2F3942"/>
<path d="M640.4 393.1H382.4V402.1H640.4C652.6 402.1 662.4 411.9 662.4 424.1V415.1C662.4 403 652.6 393.1 640.4 393.1Z" fill="#46515B"/>
<path d="M382.4 474.6H364.4V483.6H382.4V474.6Z" fill="#46515B"/>
<path d="M374.6 474.6H364.4V573.1H374.6V474.6Z" fill="#2F3942"/>
<path d="M640.4 393.1H382.4V474.6H364.4V573.1H640.4C652.6 573.1 662.4 563.3 662.4 551.1V415.1C662.4 403 652.6 393.1 640.4 393.1Z" stroke="#2D2D2D" stroke-width="6" stroke-miterlimit="10" stroke-linecap="round" stroke-linejoin="round"/>
<path d="M570.4 549.1H396.5V417.1H570.4C606.9 417.1 636.4 446.6 636.4 483.1C636.4 519.6 606.9 549.1 570.4 549.1Z" fill="#4F5E6D"/>
<path d="M570.4 549.1H396.5V417.1H570.4C606.9 417.1 636.4 446.6 636.4 483.1C636.4 519.6 606.9 549.1 570.4 549.1Z" stroke="#2D2D2D" stroke-width="5" stroke-miterlimit="10" stroke-linecap="round" stroke-linejoin="round"/>
<path d="M570.3 539.1C601.228 539.1 626.3 514.028 626.3 483.1C626.3 452.172 601.228 427.1 570.3 427.1C539.372 427.1 514.3 452.172 514.3 483.1C514.3 514.028 539.372 539.1 570.3 539.1Z" fill="#2D2D2D"/>
<path d="M573.2 538.3C569.8 534.9 566.9 531 564.5 526.8C557.2 514.2 555.2 499.8 558.5 485.9C551.4 495 547.4 506.3 547.4 518C547.4 522.5 548 527 549.1 531.3L550.2 535.5L546.3 533.7C537.4 529.5 529.8 523 524.2 514.9L523.7 514.1L523.9 513.2C525.2 508.5 527 504.1 529.4 499.9C536.7 487.3 548.2 478.3 561.8 474.3C559.3 473.9 556.9 473.8 554.4 473.8C545.3 473.8 536.4 476.2 528.5 480.8C524.6 483 521 485.8 517.9 488.9L514.8 491.9L514.5 487.6C514.4 485.9 514.3 484.5 514.3 483.1C514.3 474.7 516.1 466.6 519.7 459.1L520.1 458.3L521 458.1C525.7 456.9 530.5 456.2 535.3 456.2C549.8 456.2 563.4 461.7 573.7 471.4C569.4 460.7 561.6 451.6 551.5 445.7C547.6 443.5 543.5 441.7 539.1 440.5L535 439.4L538.5 437C546.6 431.4 556 428.1 565.8 427.3L566.7 427.2L567.4 427.9C570.8 431.3 573.7 435.2 576.1 439.4C583.4 452 585.4 466.4 582.1 480.3C589.2 471.2 593.2 459.9 593.2 448.2C593.2 443.7 592.6 439.2 591.5 434.9L590.4 430.7L594.3 432.5C603.2 436.7 610.8 443.2 616.4 451.3L616.9 452.1L616.7 453C615.4 457.6 613.6 462.1 611.2 466.3C603.9 478.9 592.4 487.9 578.8 491.9C581.3 492.3 583.7 492.4 586.2 492.4C595.3 492.4 604.2 490 612.1 485.4C616 483.2 619.6 480.4 622.7 477.3L625.8 474.3L626.1 478.6C626.2 480.3 626.3 481.7 626.3 483.1C626.3 491.5 624.5 499.6 620.9 507.1L620.5 507.9L619.6 508.1C614.9 509.3 610.1 510 605.3 510C590.8 510 577.2 504.5 566.9 494.8C571.2 505.5 579 514.6 589.1 520.5C593 522.7 597.1 524.5 601.5 525.7L605.6 526.8L602.1 529.2C594 534.8 584.6 538.1 574.8 538.9L573.9 539L573.2 538.3Z" fill="#FC244D"/>
<path d="M551.1 430.5C551.5 430.3 551.9 430.2 552.4 430.1C552 430.2 551.6 430.4 551.1 430.5Z" fill="#CE1D47"/>
<path d="M548.9 431.4C548.5 431.6 548.1 431.7 547.7 431.9C548.1 431.7 548.5 431.5 548.9 431.4Z" fill="#CE1D47"/>
<path d="M550.7 430.7C550.3 430.9 549.9 431 549.5 431.2C549.8 431 550.2 430.8 550.7 430.7Z" fill="#CE1D47"/>
<path d="M547.2 432.1C546.8 432.3 546.5 432.4 546.1 432.6C546.5 432.4 546.8 432.3 547.2 432.1Z" fill="#CE1D47"/>
<path d="M545.5 432.9C545.2 433.1 544.8 433.2 544.5 433.4C544.8 433.2 545.2 433.1 545.5 432.9Z" fill="#CE1D47"/>
<path d="M542.2 434.7C541.9 434.9 541.7 435 541.4 435.2C541.6 435 541.9 434.9 542.2 434.7Z" fill="#CE1D47"/>
<path d="M543.8 433.8C543.5 434 543.2 434.1 542.9 434.3C543.2 434.1 543.5 433.9 543.8 433.8Z" fill="#CE1D47"/>
<path d="M540.5 435.7C540.3 435.8 540.1 436 539.8 436.1C540.1 436 540.3 435.9 540.5 435.7Z" fill="#CE1D47"/>
<path d="M538.8 436.8C538.7 436.9 538.6 437 538.4 437L538.1 437.2C538.4 437.1 538.6 437 538.8 436.8Z" fill="#CE1D47"/>
<path d="M560.4 428C560.3 428 560.1 428.1 560 428.1L560.4 428Z" fill="#CE1D47"/>
<path d="M538 437.3L534.9 439.5L535.1 439.6C536.1 438.8 537 438 538 437.3Z" fill="#CE1D47"/>
<path d="M554.2 429.5C553.8 429.6 553.3 429.8 552.9 429.9C553.3 429.8 553.7 429.6 554.2 429.5Z" fill="#CE1D47"/>
<path d="M556 429C555.5 429.1 555.1 429.2 554.6 429.4C555.1 429.2 555.5 429.1 556 429Z" fill="#CE1D47"/>
<path d="M518.6 463.5C523.1 461.8 527.8 460.6 532.6 460.1C547 458.6 561.1 462.5 572.4 471.2C572.1 470.6 571.8 470.1 571.5 469.5C561.5 461 548.8 456.2 535.3 456.2C530.5 456.2 525.6 456.8 521 458.1L520.1 458.3L519.7 459.1C519 460.6 518.3 462.2 517.8 463.7L518.6 463.5Z" fill="#CE1D47"/>
<path d="M559.7 428.1C559.2 428.2 558.6 428.3 558.1 428.4C558.7 428.4 559.2 428.2 559.7 428.1Z" fill="#CE1D47"/>
<path d="M557.8 428.5C557.3 428.6 556.8 428.7 556.3 428.9C556.8 428.8 557.3 428.7 557.8 428.5Z" fill="#CE1D47"/>
<path d="M624.9 495.6C625 495.1 625.1 494.6 625.2 494.1C625.1 494.6 625 495.1 624.9 495.6Z" fill="#CE1D47"/>
<path d="M561.5 428.5C565.2 431.5 568.6 435.1 571.4 439C579.9 450.7 583.5 464.9 581.7 479C582 478.5 582.4 477.9 582.7 477.4C585.1 464.5 582.8 451.1 576.1 439.4C573.7 435.2 570.7 431.4 567.4 427.9L566.7 427.2L565.8 427.3C564.1 427.4 562.5 427.6 560.8 427.9L561.5 428.5Z" fill="#CE1D47"/>
<path d="M613.2 448.2C612.4 453 611.1 457.6 609.1 462C603.2 475.3 592.7 485.5 579.6 490.9C580.2 490.9 580.9 490.9 581.5 490.9C593.9 486.5 604.4 477.9 611.1 466.2C613.5 462 615.4 457.5 616.6 452.9L616.8 452L616.3 451.2C615.3 449.8 614.3 448.5 613.3 447.2L613.2 448.2Z" fill="#CE1D47"/>
<path d="M626 477.2C626.1 478 626.1 478.7 626.2 479.5C626.2 479.2 626.2 479 626.1 478.7L625.8 474.4L625.7 474.5C625.7 475.4 625.9 476.3 626 477.2Z" fill="#CE1D47"/>
<path d="M622 502.8C617.5 504.5 612.8 505.7 608 506.2C593.6 507.7 579.5 503.8 568.2 495.1C568.5 495.7 568.8 496.2 569.1 496.8C579.1 505.3 591.8 510.1 605.3 510.1C610.1 510.1 615 509.5 619.6 508.2L620.5 508L620.9 507.2C621.6 505.7 622.3 504.1 622.8 502.6L622 502.8Z" fill="#CE1D47"/>
<path d="M626.2 480.8C626.2 481.6 626.3 482.3 626.3 483.1C626.3 482.4 626.3 481.6 626.2 480.8Z" fill="#CE1D47"/>
<path d="M625.5 492.4C625.5 492.3 625.5 492.2 625.6 492C625.5 492.2 625.5 492.3 625.5 492.4Z" fill="#CE1D47"/>
<path d="M624.8 496.1C624.4 497.9 623.8 499.8 623.2 501.6C623.8 499.8 624.3 498 624.8 496.1Z" fill="#CE1D47"/>
<path d="M607.1 440.9C606.6 440.5 606.1 440 605.6 439.6C606 440.1 606.6 440.5 607.1 440.9Z" fill="#CE1D47"/>
<path d="M604.3 438.7C603.7 438.3 603.2 437.8 602.6 437.4C603.1 437.8 603.7 438.2 604.3 438.7Z" fill="#CE1D47"/>
<path d="M595 432.9C594.8 432.8 594.5 432.6 594.3 432.5L590.4 430.7L590.5 430.9C592 431.5 593.5 432.2 595 432.9Z" fill="#CE1D47"/>
<path d="M601.3 436.5C600.7 436.1 600 435.7 599.4 435.3C600.1 435.7 600.7 436.1 601.3 436.5Z" fill="#CE1D47"/>
<path d="M598.2 434.6C597.6 434.2 596.9 433.9 596.2 433.5C596.9 433.9 597.6 434.3 598.2 434.6Z" fill="#CE1D47"/>
<path d="M609.7 443.4C609.3 443 608.8 442.6 608.4 442.1C608.8 442.5 609.3 443 609.7 443.4Z" fill="#CE1D47"/>
<path d="M611 444.8C611.4 445.2 611.8 445.6 612.1 446C611.8 445.6 611.4 445.2 611 444.8Z" fill="#CE1D47"/>
<path d="M533.5 525.3C534 525.7 534.5 526.2 535 526.6C534.5 526.2 534 525.8 533.5 525.3Z" fill="#CE1D47"/>
<path d="M545.6 533.4C545.8 533.5 546.1 533.7 546.3 533.8L550.2 535.6L550.1 535.4C548.6 534.7 547 534.1 545.6 533.4Z" fill="#CE1D47"/>
<path d="M579.1 537.7C575.4 534.7 572 531.1 569.2 527.2C560.7 515.5 557.1 501.3 558.9 487.2C558.6 487.7 558.2 488.3 557.9 488.8C555.5 501.7 557.8 515.1 564.5 526.8C566.9 531 569.9 534.8 573.2 538.3L573.9 539L574.8 538.9C576.5 538.8 578.1 538.6 579.8 538.3L579.1 537.7Z" fill="#CE1D47"/>
<path d="M530.9 522.9C531.3 523.3 531.8 523.7 532.2 524.2C531.7 523.7 531.3 523.3 530.9 522.9Z" fill="#CE1D47"/>
<path d="M542.3 531.6C542.9 532 543.6 532.3 544.3 532.7C543.6 532.3 543 532 542.3 531.6Z" fill="#CE1D47"/>
<path d="M539.2 529.7C539.8 530.1 540.4 530.5 541.1 530.9C540.5 530.5 539.8 530.1 539.2 529.7Z" fill="#CE1D47"/>
<path d="M586.4 536.7C586.8 536.6 587.3 536.4 587.7 536.3C587.3 536.5 586.8 536.6 586.4 536.7Z" fill="#CE1D47"/>
<path d="M536.3 527.6C536.9 528 537.4 528.4 538 528.9C537.4 528.4 536.9 528 536.3 527.6Z" fill="#CE1D47"/>
<path d="M601.7 529.4C601.8 529.3 601.9 529.2 602.1 529.2L602.4 529C602.2 529.1 602 529.3 601.7 529.4Z" fill="#CE1D47"/>
<path d="M584.6 537.2C585 537.1 585.5 537 585.9 536.8C585.5 537 585.1 537.1 584.6 537.2Z" fill="#CE1D47"/>
<path d="M602.5 528.9L605.6 526.7L605.4 526.6C604.5 527.5 603.5 528.2 602.5 528.9Z" fill="#CE1D47"/>
<path d="M580.1 538.2C580.2 538.2 580.4 538.2 580.5 538.1L580.1 538.2Z" fill="#CE1D47"/>
<path d="M582.8 537.7C583.3 537.6 583.7 537.5 584.2 537.4C583.7 537.5 583.3 537.6 582.8 537.7Z" fill="#CE1D47"/>
<path d="M580.9 538.1C581.4 538 581.9 537.9 582.4 537.8C581.9 537.9 581.4 538 580.9 538.1Z" fill="#CE1D47"/>
<path d="M598.4 531.5C598.7 531.3 598.9 531.2 599.2 531C598.9 531.2 598.7 531.4 598.4 531.5Z" fill="#CE1D47"/>
<path d="M591.6 534.9C592 534.7 592.4 534.6 592.7 534.4C592.4 534.6 592 534.7 591.6 534.9Z" fill="#CE1D47"/>
<path d="M593.4 534.1C593.8 533.9 594.1 533.8 594.5 533.6C594.1 533.8 593.7 534 593.4 534.1Z" fill="#CE1D47"/>
<path d="M589.9 535.5C590.3 535.4 590.7 535.2 591.1 535C590.7 535.2 590.3 535.4 589.9 535.5Z" fill="#CE1D47"/>
<path d="M589.4 535.7C589 535.8 588.6 536 588.2 536.1C588.6 536 589 535.9 589.4 535.7Z" fill="#CE1D47"/>
<path d="M595 533.3C595.3 533.1 595.7 533 596 532.8C595.7 533 595.4 533.2 595 533.3Z" fill="#CE1D47"/>
<path d="M600.1 530.5C600.3 530.4 600.5 530.2 600.8 530.1C600.5 530.3 600.3 530.4 600.1 530.5Z" fill="#CE1D47"/>
<path d="M596.7 532.5C597 532.3 597.3 532.2 597.6 532C597.3 532.1 597 532.3 596.7 532.5Z" fill="#CE1D47"/>
<path d="M514.3 485.4C514.3 484.7 514.2 483.9 514.2 483.2C514.3 483.9 514.3 484.6 514.3 485.4Z" fill="#CE1D47"/>
<path d="M514.6 489.1C514.5 488.4 514.5 487.7 514.4 486.9C514.4 487.1 514.4 487.4 514.5 487.6L514.8 491.9L514.9 491.8C514.8 490.8 514.7 489.9 514.6 489.1Z" fill="#CE1D47"/>
<path d="M517.4 464.7C516.8 466.5 516.2 468.3 515.8 470.2C516.2 468.3 516.8 466.5 517.4 464.7Z" fill="#CE1D47"/>
<path d="M527.4 518C528.2 513.2 529.5 508.6 531.5 504.2C537.4 490.9 547.9 480.7 561 475.3C560.4 475.3 559.7 475.3 559.1 475.3C546.7 479.7 536.2 488.3 529.5 500C527.1 504.2 525.2 508.7 524 513.3L523.8 514.2L524.3 515C525.3 516.4 526.3 517.7 527.3 519L527.4 518Z" fill="#CE1D47"/>
<path d="M529.5 521.5C529.1 521.1 528.7 520.7 528.4 520.3C528.8 520.7 529.1 521.1 529.5 521.5Z" fill="#CE1D47"/>
<path d="M515 474.2C515 474.1 515 474 515.1 473.8C515 473.9 515 474 515 474.2Z" fill="#CE1D47"/>
<path d="M515.4 472.2C515.5 471.7 515.6 471.2 515.7 470.7C515.6 471.2 515.5 471.7 515.4 472.2Z" fill="#CE1D47"/>
<path d="M569.3 504.1C580.898 504.1 590.3 494.698 590.3 483.1C590.3 471.502 580.898 462.1 569.3 462.1C557.702 462.1 548.3 471.502 548.3 483.1C548.3 494.698 557.702 504.1 569.3 504.1Z" fill="#FC244D"/>
<path d="M569.3 498.6C577.861 498.6 584.8 491.661 584.8 483.1C584.8 474.54 577.861 467.6 569.3 467.6C560.74 467.6 553.8 474.54 553.8 483.1C553.8 491.661 560.74 498.6 569.3 498.6Z" fill="#CE1D47"/>
<path d="M569.2 496.1C576.38 496.1 582.2 490.28 582.2 483.1C582.2 475.92 576.38 470.1 569.2 470.1C562.02 470.1 556.2 475.92 556.2 483.1C556.2 490.28 562.02 496.1 569.2 496.1Z" fill="#2D2D2D"/>
<path d="M570.3 539.1C601.228 539.1 626.3 514.028 626.3 483.1C626.3 452.172 601.228 427.1 570.3 427.1C539.372 427.1 514.3 452.172 514.3 483.1C514.3 514.028 539.372 539.1 570.3 539.1Z" stroke="#2D2D2D" stroke-width="6" stroke-miterlimit="10" stroke-linecap="round" stroke-linejoin="round"/>
<path d="M464.7 448.4H416.2C411.9 448.4 408.4 444.9 408.4 440.6C408.4 436.3 411.9 432.8 416.2 432.8H464.7C469 432.8 472.5 436.3 472.5 440.6C472.5 444.9 469 448.4 464.7 448.4Z" fill="#2D2D2D"/>
<path d="M416.3 448.4C412.6 448.4 409.5 445.4 409.5 441.6C409.5 437.8 412.5 434.8 416.3 434.8H464.8C468.5 434.8 471.6 437.8 471.6 441.6C471.6 445.4 468.6 448.4 464.8 448.4H416.3Z" fill="#232323"/>
<path d="M464.7 475.4H416.2C411.9 475.4 408.4 471.9 408.4 467.6C408.4 463.3 411.9 459.8 416.2 459.8H464.7C469 459.8 472.5 463.3 472.5 467.6C472.5 471.9 469 475.4 464.7 475.4Z" fill="#2D2D2D"/>
<path d="M416.3 475.4C412.6 475.4 409.5 472.4 409.5 468.6C409.5 464.8 412.5 461.8 416.3 461.8H464.8C468.5 461.8 471.6 464.8 471.6 468.6C471.6 472.4 468.6 475.4 464.8 475.4H416.3Z" fill="#232323"/>
<path d="M464.7 502.4H416.2C411.9 502.4 408.4 498.9 408.4 494.6C408.4 490.3 411.9 486.8 416.2 486.8H464.7C469 486.8 472.5 490.3 472.5 494.6C472.5 498.9 469 502.4 464.7 502.4Z" fill="#2D2D2D"/>
<path d="M416.3 502.4C412.6 502.4 409.5 499.4 409.5 495.6C409.5 491.9 412.5 488.8 416.3 488.8H464.8C468.5 488.8 471.6 491.8 471.6 495.6C471.6 499.3 468.6 502.4 464.8 502.4H416.3Z" fill="#232323"/>
<path d="M464.7 529.4H416.2C411.9 529.4 408.4 525.9 408.4 521.6C408.4 517.3 411.9 513.8 416.2 513.8H464.7C469 513.8 472.5 517.3 472.5 521.6C472.5 525.9 469 529.4 464.7 529.4Z" fill="#2D2D2D"/>
<path d="M416.3 529.4C412.6 529.4 409.5 526.4 409.5 522.6C409.5 518.8 412.5 515.8 416.3 515.8H464.8C468.5 515.8 471.6 518.8 471.6 522.6C471.6 526.4 468.6 529.4 464.8 529.4H416.3Z" fill="#232323"/>
<path d="M396.5 591.5C392.6 591.5 389.5 588.4 389.5 584.5V573.2H403.5V584.5C403.5 588.3 400.4 591.5 396.5 591.5Z" fill="#2D2D2D" stroke="#2D2D2D" stroke-width="6" stroke-miterlimit="10"/>
<g opacity="0.2">
<path opacity="0.2" d="M510.6 741.2C504.6 741.2 499.8 736.4 499.8 730.4V685C499.8 679 504.6 674.2 510.6 674.2C516.6 674.2 521.4 679 521.4 685V730.3C521.4 736.3 516.5 741.2 510.6 741.2Z" fill="white"/>
<path opacity="0.2" d="M488.5 685C488.5 679 493.3 674.2 499.3 674.2H521.9C527.9 674.2 532.7 679 532.7 685C532.7 691 527.9 695.8 521.9 695.8H499.3C493.3 695.8 488.5 691 488.5 685Z" fill="white"/>
<path opacity="0.2" d="M470 674.2C466.7 674.2 463.7 675.7 461.7 678L417.1 722.6C412.9 726.8 412.9 733.7 417.1 737.9C421.3 742.1 428.2 742.1 432.4 737.9L459.1 711.2V730.3C459.1 736.3 463.9 741.1 469.9 741.1C475.9 741.1 480.7 736.3 480.7 730.3V685C480.8 679 475.9 674.2 470 674.2Z" fill="white"/>
<path opacity="0.2" d="M557.9 674.2C551.9 674.2 547.1 679 547.1 685V730.3C547.1 736.3 551.9 741.1 557.9 741.1C563.9 741.1 568.7 736.3 568.7 730.3V685C568.8 679 563.9 674.2 557.9 674.2ZM557.9 693.1C553.4 693.1 549.8 689.5 549.8 685C549.8 680.5 553.4 676.9 557.9 676.9C562.4 676.9 566 680.5 566 685C566.1 689.5 562.4 693.1 557.9 693.1Z" fill="white"/>
<path opacity="0.2" d="M451.3 734.4C454.062 734.4 456.3 732.161 456.3 729.4C456.3 726.638 454.062 724.4 451.3 724.4C448.539 724.4 446.3 726.638 446.3 729.4C446.3 732.161 448.539 734.4 451.3 734.4Z" fill="white"/>
</g>
<defs>
<linearGradient id="paint0_linear_847_1116" x1="500" y1="-147.015" x2="500" y2="1036.89" gradientUnits="userSpaceOnUse">
<stop stop-color="#E03F3F"/>
<stop offset="1" stop-color="#CE0033"/>
</linearGradient>
</defs>
</svg>
