<svg width="1000" height="1000" viewBox="0 0 1000 1000" fill="none" xmlns="http://www.w3.org/2000/svg">
<path d="M1000 0H0V1000H1000V0Z" fill="#00C2E8"/>
<path opacity="0.2" d="M606.1 358.8H574.1C568.6 358.8 564.1 363.3 564.1 368.8V379.8C564.1 385.3 559.6 389.8 554.1 389.8H450.1C444.6 389.8 440.1 385.3 440.1 379.8V368.8C440.1 363.3 435.6 358.8 430.1 358.8H398.1C390.4 358.8 384.1 365.1 384.1 372.8V675.8C384.1 683.5 390.4 689.8 398.1 689.8H606.1C613.8 689.8 620.1 683.5 620.1 675.8V372.8C620.1 365.1 613.9 358.8 606.1 358.8Z" fill="#232323" stroke="#232323" stroke-width="6" stroke-miterlimit="10" stroke-linecap="round" stroke-linejoin="round"/>
<path d="M550.4 354.5V349.5C550.4 345.6 547.3 342.5 543.4 342.5H501.4C497.5 342.5 494.4 345.6 494.4 349.5V354.5C494.4 358.4 491.3 361.5 487.4 361.5C483.5 361.5 480.4 358.4 480.4 354.5V349.5C480.4 345.6 477.3 342.5 473.4 342.5H459.4C455.5 342.5 452.4 345.6 452.4 349.5V354.5C452.4 358.4 449.3 361.5 445.4 361.5H432.8C428.9 361.5 425.8 364.6 425.8 368.5V373.5H577.8V368.5C577.8 364.6 574.7 361.5 570.8 361.5H557.4C553.6 361.5 550.4 358.4 550.4 354.5Z" fill="#DCD6E2"/>
<path d="M425.8 368.5V373.5H577.8V368.5C577.8 367 577.3 365.6 576.5 364.5H427.1C426.3 365.6 425.8 367 425.8 368.5Z" fill="#C3BACE"/>
<path d="M550.4 354.5V349.5C550.4 345.6 547.3 342.5 543.4 342.5H501.4C497.5 342.5 494.4 345.6 494.4 349.5V354.5C494.4 358.4 491.3 361.5 487.4 361.5C483.5 361.5 480.4 358.4 480.4 354.5V349.5C480.4 345.6 477.3 342.5 473.4 342.5H459.4C455.5 342.5 452.4 345.6 452.4 349.5V354.5C452.4 358.4 449.3 361.5 445.4 361.5H432.8C428.9 361.5 425.8 364.6 425.8 368.5V373.5H577.8V368.5C577.8 364.6 574.7 361.5 570.8 361.5H557.4C553.6 361.5 550.4 358.4 550.4 354.5Z" stroke="#4B5181" stroke-width="4" stroke-miterlimit="10" stroke-linecap="round" stroke-linejoin="round"/>
<path d="M606.1 342.5H574.1C568.6 342.5 564.1 347 564.1 352.5V363.5C564.1 369 559.6 373.5 554.1 373.5H450.1C444.6 373.5 440.1 369 440.1 363.5V352.5C440.1 347 435.6 342.5 430.1 342.5H398.1C390.4 342.5 384.1 348.8 384.1 356.5V659.5C384.1 667.2 390.4 673.5 398.1 673.5H606.1C613.8 673.5 620.1 667.2 620.1 659.5V356.5C620.1 348.8 613.9 342.5 606.1 342.5Z" fill="#787296"/>
<path d="M606.1 342.5H574.1C568.6 342.5 564.1 347 564.1 352.5V363.5C564.1 369 559.6 373.5 554.1 373.5H450.1C444.6 373.5 440.1 369 440.1 363.5V352.5C440.1 347 435.6 342.5 430.1 342.5H398.1C390.4 342.5 384.1 348.8 384.1 356.5V659.5C384.1 667.2 390.4 673.5 398.1 673.5H606.1C613.8 673.5 620.1 667.2 620.1 659.5V356.5C620.1 348.8 613.9 342.5 606.1 342.5Z" fill="#676289"/>
<path d="M398.1 664.5C395.3 664.5 393.1 662.3 393.1 659.5V356.5C393.1 353.7 395.3 351.5 398.1 351.5H430.1C430.7 351.5 431.1 351.9 431.1 352.5V363.5C431.1 374 439.6 382.5 450.1 382.5H554.1C564.6 382.5 573.1 374 573.1 363.5V352.5C573.1 351.9 573.5 351.5 574.1 351.5H606.1C608.9 351.5 611.1 353.7 611.1 356.5V659.5C611.1 662.3 608.9 664.5 606.1 664.5H398.1Z" fill="#787296"/>
<path d="M419.5 609.5V575L431.9 555C435.4 549.3 434.9 542.1 430.7 536.9C430.7 536.9 430.7 536.8 430.6 536.8C417.4 520.5 410.2 500 410.2 479C410.2 428.3 451.5 387 502.2 387C552.9 387 594.2 428.3 594.2 479C594.2 500 586.9 520.5 573.8 536.8C573.8 536.8 573.8 536.9 573.7 536.9C569.5 542.1 568.9 549.3 572.4 555L584.8 575V609.4C578.6 615.6 575 619.2 568.8 625.4H435.5C429.3 619.2 425.7 615.7 419.5 609.5Z" fill="#4B5181"/>
<path d="M527.1 566.5C519.3 574.3 514.9 578.7 507.1 586.5V618.2H555.4C563.2 610.4 567.6 606 575.4 598.2V566.5H527.1Z" fill="#62AF97"/>
<path d="M419.5 609.5V575L431.9 555C435.4 549.3 434.9 542.1 430.7 536.9C430.7 536.9 430.7 536.8 430.6 536.8C417.4 520.5 410.2 500 410.2 479C410.2 428.3 451.5 387 502.2 387C552.9 387 594.2 428.3 594.2 479C594.2 500 586.9 520.5 573.8 536.8C573.8 536.8 573.8 536.9 573.7 536.9C569.5 542.1 568.9 549.3 572.4 555L584.8 575V609.4C578.6 615.6 575 619.2 568.8 625.4H435.5C429.3 619.2 425.7 615.7 419.5 609.5Z" stroke="#4B5181" stroke-width="8" stroke-miterlimit="10" stroke-linecap="round" stroke-linejoin="round"/>
<path d="M606.1 342.5H574.1C568.6 342.5 564.1 347 564.1 352.5V363.5C564.1 369 559.6 373.5 554.1 373.5H450.1C444.6 373.5 440.1 369 440.1 363.5V352.5C440.1 347 435.6 342.5 430.1 342.5H398.1C390.4 342.5 384.1 348.8 384.1 356.5V659.5C384.1 667.2 390.4 673.5 398.1 673.5H606.1C613.8 673.5 620.1 667.2 620.1 659.5V356.5C620.1 348.8 613.9 342.5 606.1 342.5Z" stroke="#4B5181" stroke-width="6" stroke-miterlimit="10" stroke-linecap="round" stroke-linejoin="round"/>
<path d="M470.5 342.5V358.5" stroke="#4B5181" stroke-width="4" stroke-miterlimit="10" stroke-linecap="round" stroke-linejoin="round"/>
<path d="M461.5 342.5V358.5" stroke="#4B5181" stroke-width="4" stroke-miterlimit="10" stroke-linecap="round" stroke-linejoin="round"/>
<path d="M539.6 342.5V358.5" stroke="#4B5181" stroke-width="4" stroke-miterlimit="10" stroke-linecap="round" stroke-linejoin="round"/>
<path d="M530.6 342.5V358.5" stroke="#4B5181" stroke-width="4" stroke-miterlimit="10" stroke-linecap="round" stroke-linejoin="round"/>
<path d="M521.6 342.5V358.5" stroke="#4B5181" stroke-width="4" stroke-miterlimit="10" stroke-linecap="round" stroke-linejoin="round"/>
<path d="M512.6 342.5V358.5" stroke="#4B5181" stroke-width="4" stroke-miterlimit="10" stroke-linecap="round" stroke-linejoin="round"/>
<path d="M503.6 342.5V358.5" stroke="#4B5181" stroke-width="4" stroke-miterlimit="10" stroke-linecap="round" stroke-linejoin="round"/>
<path d="M502.1 559C546.283 559 582.1 523.183 582.1 479C582.1 434.817 546.283 399 502.1 399C457.917 399 422.1 434.817 422.1 479C422.1 523.183 457.917 559 502.1 559Z" fill="#B1CEDE"/>
<path d="M502.1 559C546.283 559 582.1 523.183 582.1 479C582.1 434.817 546.283 399 502.1 399C457.917 399 422.1 434.817 422.1 479C422.1 523.183 457.917 559 502.1 559Z" fill="#C1CEE0"/>
<path opacity="0.69" d="M546.1 415.8L424.1 501.2C426.4 510.5 430.3 519.4 435.6 527.3L566.7 435.6C561.1 427.9 554.2 421.2 546.1 415.8Z" fill="#F2F6F7"/>
<path opacity="0.69" d="M453.1 545.9L578.1 458.4C576.7 453.8 574.8 449.4 572.6 445.2L442.6 536.2C445.8 539.7 449.3 543 453.1 545.9Z" fill="#F2F6F7"/>
<path d="M502.1 504.1C515.962 504.1 527.2 492.862 527.2 479C527.2 465.138 515.962 453.9 502.1 453.9C488.238 453.9 477 465.138 477 479C477 492.862 488.238 504.1 502.1 504.1Z" fill="#4B5181"/>
<path d="M502.1 490C508.175 490 513.1 485.075 513.1 479C513.1 472.925 508.175 468 502.1 468C496.025 468 491.1 472.925 491.1 479C491.1 485.075 496.025 490 502.1 490Z" fill="#525A89"/>
<path d="M502.1 559C546.283 559 582.1 523.183 582.1 479C582.1 434.817 546.283 399 502.1 399C457.917 399 422.1 434.817 422.1 479C422.1 523.183 457.917 559 502.1 559Z" stroke="#4B5181" stroke-width="6" stroke-miterlimit="10" stroke-linecap="round" stroke-linejoin="round"/>
<path d="M541.1 572V581" stroke="#C1C9F4" stroke-width="3" stroke-miterlimit="10" stroke-linecap="round" stroke-linejoin="round"/>
<path d="M545.9 572V581" stroke="#C1C9F4" stroke-width="3" stroke-miterlimit="10" stroke-linecap="round" stroke-linejoin="round"/>
<path d="M550.6 572V581" stroke="#C1C9F4" stroke-width="3" stroke-miterlimit="10" stroke-linecap="round" stroke-linejoin="round"/>
<path d="M541.1 600.3V609.2" stroke="#C1C9F4" stroke-width="3" stroke-miterlimit="10" stroke-linecap="round" stroke-linejoin="round"/>
<path d="M545.9 600.3V609.2" stroke="#C1C9F4" stroke-width="3" stroke-miterlimit="10" stroke-linecap="round" stroke-linejoin="round"/>
<path d="M550.6 600.3V609.2" stroke="#C1C9F4" stroke-width="3" stroke-miterlimit="10" stroke-linecap="round" stroke-linejoin="round"/>
<path d="M564.4 585.9H555.4" stroke="#C1C9F4" stroke-width="3" stroke-miterlimit="10" stroke-linecap="round" stroke-linejoin="round"/>
<path d="M564.4 590.6H555.4" stroke="#C1C9F4" stroke-width="3" stroke-miterlimit="10" stroke-linecap="round" stroke-linejoin="round"/>
<path d="M564.4 595.3H555.4" stroke="#C1C9F4" stroke-width="3" stroke-miterlimit="10" stroke-linecap="round" stroke-linejoin="round"/>
<path d="M536.2 585.9H527.2" stroke="#C1C9F4" stroke-width="3" stroke-miterlimit="10" stroke-linecap="round" stroke-linejoin="round"/>
<path d="M536.2 590.6H527.2" stroke="#C1C9F4" stroke-width="3" stroke-miterlimit="10" stroke-linecap="round" stroke-linejoin="round"/>
<path d="M536.2 595.3H527.2" stroke="#C1C9F4" stroke-width="3" stroke-miterlimit="10" stroke-linecap="round" stroke-linejoin="round"/>
<path d="M477.6 573H420.7L419.4 575.1V609.5C425.6 615.7 429.2 619.3 435.4 625.5H477.5V573H477.6Z" fill="#C3BACE"/>
<path d="M438 619.5L425.5 607V573H477.6V619.5H438Z" fill="#E4E1EA"/>
<path d="M477.6 573H420.7L419.4 575.1V609.5C425.6 615.7 429.2 619.3 435.4 625.5H477.5V573H477.6Z" stroke="#4B5181" stroke-width="4" stroke-miterlimit="10" stroke-linecap="round" stroke-linejoin="round"/>
<path d="M410.1 395C414.518 395 418.1 391.418 418.1 387C418.1 382.582 414.518 379 410.1 379C405.682 379 402.1 382.582 402.1 387C402.1 391.418 405.682 395 410.1 395Z" fill="#DDD7E3"/>
<path d="M410.1 395C414.518 395 418.1 391.418 418.1 387C418.1 382.582 414.518 379 410.1 379C405.682 379 402.1 382.582 402.1 387C402.1 391.418 405.682 395 410.1 395Z" stroke="#4B5181" stroke-width="4" stroke-miterlimit="10" stroke-linecap="round" stroke-linejoin="round"/>
<path d="M406.9 387H413.1" stroke="#4B5181" stroke-width="4" stroke-miterlimit="10" stroke-linecap="round" stroke-linejoin="round"/>
<path d="M410 383.9V390.1" stroke="#4B5181" stroke-width="4" stroke-miterlimit="10" stroke-linecap="round" stroke-linejoin="round"/>
<path d="M594.1 395C598.518 395 602.1 391.418 602.1 387C602.1 382.582 598.518 379 594.1 379C589.682 379 586.1 382.582 586.1 387C586.1 391.418 589.682 395 594.1 395Z" fill="#DDD7E3"/>
<path d="M594.1 395C598.518 395 602.1 391.418 602.1 387C602.1 382.582 598.518 379 594.1 379C589.682 379 586.1 382.582 586.1 387C586.1 391.418 589.682 395 594.1 395Z" stroke="#4B5181" stroke-width="4" stroke-miterlimit="10" stroke-linecap="round" stroke-linejoin="round"/>
<path d="M590.9 387H597.1" stroke="#4B5181" stroke-width="4" stroke-miterlimit="10" stroke-linecap="round" stroke-linejoin="round"/>
<path d="M594 383.9V390.1" stroke="#4B5181" stroke-width="4" stroke-miterlimit="10" stroke-linecap="round" stroke-linejoin="round"/>
<path d="M594.1 553C598.518 553 602.1 549.418 602.1 545C602.1 540.582 598.518 537 594.1 537C589.682 537 586.1 540.582 586.1 545C586.1 549.418 589.682 553 594.1 553Z" fill="#DDD7E3"/>
<path d="M594.1 553C598.518 553 602.1 549.418 602.1 545C602.1 540.582 598.518 537 594.1 537C589.682 537 586.1 540.582 586.1 545C586.1 549.418 589.682 553 594.1 553Z" stroke="#4B5181" stroke-width="4" stroke-miterlimit="10" stroke-linecap="round" stroke-linejoin="round"/>
<path d="M590.9 545H597.1" stroke="#4B5181" stroke-width="4" stroke-miterlimit="10" stroke-linecap="round" stroke-linejoin="round"/>
<path d="M594 541.9V548.1" stroke="#4B5181" stroke-width="4" stroke-miterlimit="10" stroke-linecap="round" stroke-linejoin="round"/>
<path d="M594.1 650.2C598.518 650.2 602.1 646.618 602.1 642.2C602.1 637.782 598.518 634.2 594.1 634.2C589.682 634.2 586.1 637.782 586.1 642.2C586.1 646.618 589.682 650.2 594.1 650.2Z" fill="#DDD7E3"/>
<path d="M594.1 650.2C598.518 650.2 602.1 646.618 602.1 642.2C602.1 637.782 598.518 634.2 594.1 634.2C589.682 634.2 586.1 637.782 586.1 642.2C586.1 646.618 589.682 650.2 594.1 650.2Z" stroke="#4B5181" stroke-width="4" stroke-miterlimit="10" stroke-linecap="round" stroke-linejoin="round"/>
<path d="M590.9 642.2H597.1" stroke="#4B5181" stroke-width="4" stroke-miterlimit="10" stroke-linecap="round" stroke-linejoin="round"/>
<path d="M594 639V645.3" stroke="#4B5181" stroke-width="4" stroke-miterlimit="10" stroke-linecap="round" stroke-linejoin="round"/>
<path d="M410.1 650.2C414.518 650.2 418.1 646.618 418.1 642.2C418.1 637.782 414.518 634.2 410.1 634.2C405.682 634.2 402.1 637.782 402.1 642.2C402.1 646.618 405.682 650.2 410.1 650.2Z" fill="#DDD7E3"/>
<path d="M410.1 650.2C414.518 650.2 418.1 646.618 418.1 642.2C418.1 637.782 414.518 634.2 410.1 634.2C405.682 634.2 402.1 637.782 402.1 642.2C402.1 646.618 405.682 650.2 410.1 650.2Z" stroke="#4B5181" stroke-width="4" stroke-miterlimit="10" stroke-linecap="round" stroke-linejoin="round"/>
<path d="M406.9 642.2H413.1" stroke="#4B5181" stroke-width="4" stroke-miterlimit="10" stroke-linecap="round" stroke-linejoin="round"/>
<path d="M410 639V645.3" stroke="#4B5181" stroke-width="4" stroke-miterlimit="10" stroke-linecap="round" stroke-linejoin="round"/>
<path d="M410.1 553C414.518 553 418.1 549.418 418.1 545C418.1 540.582 414.518 537 410.1 537C405.682 537 402.1 540.582 402.1 545C402.1 549.418 405.682 553 410.1 553Z" fill="#DDD7E3"/>
<path d="M410.1 553C414.518 553 418.1 549.418 418.1 545C418.1 540.582 414.518 537 410.1 537C405.682 537 402.1 540.582 402.1 545C402.1 549.418 405.682 553 410.1 553Z" stroke="#4B5181" stroke-width="4" stroke-miterlimit="10" stroke-linecap="round" stroke-linejoin="round"/>
<path d="M406.9 545H413.1" stroke="#4B5181" stroke-width="4" stroke-miterlimit="10" stroke-linecap="round" stroke-linejoin="round"/>
<path d="M410 541.9V548.1" stroke="#4B5181" stroke-width="4" stroke-miterlimit="10" stroke-linecap="round" stroke-linejoin="round"/>
<path d="M543.2 504.7L465.5 604.7C459.6 612.3 448.4 613.3 441.2 606.8C434.1 600.3 434 589.1 441 582.5L533.3 495.8C535.8 493.4 539.8 493.4 542.4 495.7C545 498 545.4 502 543.2 504.7Z" fill="#F8DB97"/>
<path d="M542.5 495.7C541.6 494.8 540.4 494.3 539.3 494.1C540 496.2 539.7 498.5 538.2 500.3L460.5 600.3C455.3 606.9 446.2 608.5 439.2 604.6C439.8 605.4 440.5 606.2 441.2 606.9C448.3 613.4 459.5 612.4 465.5 604.8L543.2 504.8C545.4 502 545 498 542.5 495.7Z" fill="#E0BA77"/>
<path d="M543.2 504.7L465.5 604.7C459.6 612.3 448.4 613.3 441.2 606.8C434.1 600.3 434 589.1 441 582.5L533.3 495.8C535.8 493.4 539.8 493.4 542.4 495.7C545 498 545.4 502 543.2 504.7Z" stroke="#4B5181" stroke-width="4" stroke-miterlimit="10" stroke-linecap="round" stroke-linejoin="round"/>
<path d="M556.9 604.7H534.7C533 604.7 531.7 603.4 531.7 601.7V579.5C531.7 577.8 533 576.5 534.7 576.5H556.9C558.6 576.5 559.9 577.8 559.9 579.5V601.7C559.9 603.4 558.6 604.7 556.9 604.7Z" fill="#525A89"/>
<path d="M556.9 604.7H534.7C533 604.7 531.7 603.4 531.7 601.7V579.5C531.7 577.8 533 576.5 534.7 576.5H556.9C558.6 576.5 559.9 577.8 559.9 579.5V601.7C559.9 603.4 558.6 604.7 556.9 604.7Z" stroke="#4B5181" stroke-width="4" stroke-miterlimit="10" stroke-linecap="round" stroke-linejoin="round"/>
<path d="M452.5 601.9C456.918 601.9 460.5 598.318 460.5 593.9C460.5 589.482 456.918 585.9 452.5 585.9C448.082 585.9 444.5 589.482 444.5 593.9C444.5 598.318 448.082 601.9 452.5 601.9Z" fill="#4B5181"/>
<path d="M452.5 598.8C455.206 598.8 457.4 596.606 457.4 593.9C457.4 591.194 455.206 589 452.5 589C449.794 589 447.6 591.194 447.6 593.9C447.6 596.606 449.794 598.8 452.5 598.8Z" fill="#525A89"/>
<path d="M427.9 585.8C429.225 585.8 430.3 584.726 430.3 583.4C430.3 582.075 429.225 581 427.9 581C426.575 581 425.5 582.075 425.5 583.4C425.5 584.726 426.575 585.8 427.9 585.8Z" stroke="#4B5181" stroke-width="4" stroke-miterlimit="10" stroke-linecap="round" stroke-linejoin="round"/>
<path d="M466.9 618.1C468.225 618.1 469.3 617.026 469.3 615.7C469.3 614.375 468.225 613.3 466.9 613.3C465.575 613.3 464.5 614.375 464.5 615.7C464.5 617.026 465.575 618.1 466.9 618.1Z" stroke="#4B5181" stroke-width="4" stroke-miterlimit="10" stroke-linecap="round" stroke-linejoin="round"/>
<path opacity="0.3" d="M502.1 464.9C503.647 464.9 504.9 463.646 504.9 462.1C504.9 460.554 503.647 459.3 502.1 459.3C500.554 459.3 499.3 460.554 499.3 462.1C499.3 463.646 500.554 464.9 502.1 464.9Z" fill="#DDD7E3"/>
<path opacity="0.3" d="M502.1 498.7C503.647 498.7 504.9 497.446 504.9 495.9C504.9 494.354 503.647 493.1 502.1 493.1C500.554 493.1 499.3 494.354 499.3 495.9C499.3 497.446 500.554 498.7 502.1 498.7Z" fill="#DDD7E3"/>
<path opacity="0.3" d="M519 481.8C520.547 481.8 521.8 480.546 521.8 479C521.8 477.454 520.547 476.2 519 476.2C517.454 476.2 516.2 477.454 516.2 479C516.2 480.546 517.454 481.8 519 481.8Z" fill="#DDD7E3"/>
<path opacity="0.3" d="M485.2 481.8C486.746 481.8 488 480.546 488 479C488 477.454 486.746 476.2 485.2 476.2C483.654 476.2 482.4 477.454 482.4 479C482.4 480.546 483.654 481.8 485.2 481.8Z" fill="#DDD7E3"/>
</svg>
