<svg width="1000" height="1000" viewBox="0 0 1000 1000" fill="none" xmlns="http://www.w3.org/2000/svg">
<path d="M1000 0H0V1000H1000V0Z" fill="#6B5465"/>
<path opacity="0.31" d="M677 485.6V457C677 453.7 674.3 451 671 451H329C325.7 451 323 453.7 323 457V485.6C336.3 485.6 347 496.3 347 509.6C347 522.9 336.3 533.6 323 533.6V593C323 594.1 323.9 595 325 595H529.4V572H545.9V595H675C676.1 595 677 594.1 677 593V533.6C663.7 533.6 653 522.9 653 509.6C653 496.3 663.7 485.6 677 485.6ZM342.2 572C337.2 572 333.2 568 333.2 563C333.2 558 337.2 554 342.2 554C347.2 554 351.2 558 351.2 563C351.2 568 347.2 572 342.2 572ZM658.2 554C663.2 554 667.2 558 667.2 563C667.2 568 663.2 572 658.2 572C653.2 572 649.2 568 649.2 563C649.2 558 653.2 554 658.2 554Z" fill="#353535" stroke="#353535" stroke-width="6" stroke-miterlimit="10" stroke-linecap="round" stroke-linejoin="round"/>
<path d="M677 478.6V450C677 446.7 674.3 444 671 444H329C325.7 444 323 446.7 323 450V478.6C336.3 478.6 347 489.3 347 502.6C347 515.9 336.3 526.6 323 526.6V586C323 587.1 323.9 588 325 588H529.4V565H545.9V588H675C676.1 588 677 587.1 677 586V526.6C663.7 526.6 653 515.9 653 502.6C653 489.3 663.7 478.6 677 478.6ZM342.2 565C337.2 565 333.2 561 333.2 556C333.2 551 337.2 547 342.2 547C347.2 547 351.2 551 351.2 556C351.2 561 347.2 565 342.2 565ZM658.2 547C663.2 547 667.2 551 667.2 556C667.2 561 663.2 565 658.2 565C653.2 565 649.2 561 649.2 556C649.2 551 653.2 547 658.2 547Z" fill="#14B0BF"/>
<path d="M677 453V447.6C677 445.6 674.3 444 671 444H329C325.7 444 323 445.6 323 447.6V453H677Z" fill="#24C1C9"/>
<path d="M677 562H546V588H677V562Z" fill="#353535"/>
<path d="M361.8 549.1H638.2" stroke="#353535" stroke-width="7" stroke-miterlimit="10" stroke-linecap="round" stroke-linejoin="round"/>
<path d="M658.2 565C663.171 565 667.2 560.971 667.2 556C667.2 551.029 663.171 547 658.2 547C653.23 547 649.2 551.029 649.2 556C649.2 560.971 653.23 565 658.2 565Z" stroke="#194254" stroke-width="6" stroke-miterlimit="10" stroke-linecap="round" stroke-linejoin="round"/>
<path d="M529.4 562H323V588H529.4V562Z" fill="#353535"/>
<path d="M519.8 588H512.6C512.1 588 511.7 587.6 511.7 587.1V569C511.7 567.3 513 566 514.7 566H517.7C519.4 566 520.7 567.3 520.7 569V587.1C520.8 587.6 520.4 588 519.8 588Z" fill="#FCE18D"/>
<path d="M505.8 588H498.6C498.1 588 497.7 587.6 497.7 587.1V569C497.7 567.3 499 566 500.7 566H503.7C505.4 566 506.7 567.3 506.7 569V587.1C506.8 587.6 506.4 588 505.8 588Z" fill="#FCE18D"/>
<path d="M491.8 588H484.6C484.1 588 483.7 587.6 483.7 587.1V569C483.7 567.3 485 566 486.7 566H489.7C491.4 566 492.7 567.3 492.7 569V587.1C492.8 587.6 492.4 588 491.8 588Z" fill="#FCE18D"/>
<path d="M477.8 588H470.6C470.1 588 469.7 587.6 469.7 587.1V569C469.7 567.3 471 566 472.7 566H475.7C477.4 566 478.7 567.3 478.7 569V587.1C478.8 587.6 478.4 588 477.8 588Z" fill="#FCE18D"/>
<path d="M463.8 588H456.6C456.1 588 455.7 587.6 455.7 587.1V569C455.7 567.3 457 566 458.7 566H461.7C463.4 566 464.7 567.3 464.7 569V587.1C464.8 587.6 464.4 588 463.8 588Z" fill="#FCE18D"/>
<path d="M449.8 588H442.6C442.1 588 441.7 587.6 441.7 587.1V569C441.7 567.3 443 566 444.7 566H447.7C449.4 566 450.7 567.3 450.7 569V587.1C450.8 587.6 450.4 588 449.8 588Z" fill="#FCE18D"/>
<path d="M435.8 588H428.6C428.1 588 427.7 587.6 427.7 587.1V569C427.7 567.3 429 566 430.7 566H433.7C435.4 566 436.7 567.3 436.7 569V587.1C436.8 587.6 436.4 588 435.8 588Z" fill="#FCE18D"/>
<path d="M421.8 588H414.6C414.1 588 413.7 587.6 413.7 587.1V569C413.7 567.3 415 566 416.7 566H419.7C421.4 566 422.7 567.3 422.7 569V587.1C422.8 587.6 422.4 588 421.8 588Z" fill="#FCE18D"/>
<path d="M407.8 588H400.6C400.1 588 399.7 587.6 399.7 587.1V569C399.7 567.3 401 566 402.7 566H405.7C407.4 566 408.7 567.3 408.7 569V587.1C408.8 587.6 408.4 588 407.8 588Z" fill="#FCE18D"/>
<path d="M393.8 588H386.6C386.1 588 385.7 587.6 385.7 587.1V569C385.7 567.3 387 566 388.7 566H391.7C393.4 566 394.7 567.3 394.7 569V587.1C394.8 587.6 394.4 588 393.8 588Z" fill="#FCE18D"/>
<path d="M379.8 588H372.6C372.1 588 371.7 587.6 371.7 587.1V569C371.7 567.3 373 566 374.7 566H377.7C379.4 566 380.7 567.3 380.7 569V587.1C380.8 587.6 380.4 588 379.8 588Z" fill="#FCE18D"/>
<path d="M365.8 588H358.6C358.1 588 357.7 587.6 357.7 587.1V569C357.7 567.3 359 566 360.7 566H363.7C365.4 566 366.7 567.3 366.7 569V587.1C366.8 587.6 366.4 588 365.8 588Z" fill="#FCE18D"/>
<path d="M647.6 588H638.6V569C638.6 567.3 639.9 566 641.6 566H644.6C646.3 566 647.6 567.3 647.6 569V588Z" fill="#FCE18D"/>
<path d="M633.6 588H624.6V569C624.6 567.3 625.9 566 627.6 566H630.6C632.3 566 633.6 567.3 633.6 569V588Z" fill="#FCE18D"/>
<path d="M619.6 588H610.6V569C610.6 567.3 611.9 566 613.6 566H616.6C618.3 566 619.6 567.3 619.6 569V588Z" fill="#FCE18D"/>
<path d="M605.6 588H596.6V569C596.6 567.3 597.9 566 599.6 566H602.6C604.3 566 605.6 567.3 605.6 569V588Z" fill="#FCE18D"/>
<path d="M591.6 588H582.6V569C582.6 567.3 583.9 566 585.6 566H588.6C590.3 566 591.6 567.3 591.6 569V588Z" fill="#FCE18D"/>
<path d="M577.6 588H568.6V569C568.6 567.3 569.9 566 571.6 566H574.6C576.3 566 577.6 567.3 577.6 569V588Z" fill="#FCE18D"/>
<path d="M563.6 588H554.6V569C554.6 567.3 555.9 566 557.6 566H560.6C562.3 566 563.6 567.3 563.6 569V588Z" fill="#FCE18D"/>
<path d="M653 502.6C653 490.6 661.8 480.6 673.3 478.9C675.4 478.6 677 476.9 677 474.8V454.3C677 448.7 672.4 444.1 666.8 444.1H333.2C327.6 444.1 323 448.7 323 454.3V474.8C323 476.9 324.6 478.6 326.7 478.9C338.2 480.7 347 490.6 347 502.6C347 514.6 338.2 524.6 326.7 526.3C324.6 526.6 323 528.3 323 530.4V581.8C323 585.2 325.8 588 329.2 588H525.2C527.5 588 529.4 586.1 529.4 583.8V565H545.9V583.8C545.9 586.1 547.8 588 550.1 588H670.8C674.2 588 677 585.2 677 581.8V530.4C677 528.3 675.4 526.6 673.3 526.3C661.8 524.5 653 514.6 653 502.6Z" stroke="#194254" stroke-width="6" stroke-miterlimit="10" stroke-linecap="round" stroke-linejoin="round"/>
<path d="M342.2 565C347.171 565 351.2 560.971 351.2 556C351.2 551.029 347.171 547 342.2 547C337.23 547 333.2 551.029 333.2 556C333.2 560.971 337.23 565 342.2 565Z" stroke="#194254" stroke-width="6" stroke-miterlimit="10" stroke-linecap="round" stroke-linejoin="round"/>
<path opacity="0.2" d="M405.8 535.6H371.8C369.6 535.6 367.8 533.8 367.8 531.6V481.6C367.8 479.4 369.6 477.6 371.8 477.6H405.8C408 477.6 409.8 479.4 409.8 481.6V531.6C409.8 533.8 408 535.6 405.8 535.6Z" fill="#2C5871"/>
<path d="M361.8 526.6H367.8" stroke="#EAE9DA" stroke-width="4" stroke-miterlimit="10" stroke-linecap="round" stroke-linejoin="round"/>
<path d="M361.8 518.6H367.8" stroke="#EAE9DA" stroke-width="4" stroke-miterlimit="10" stroke-linecap="round" stroke-linejoin="round"/>
<path d="M361.8 510.6H367.8" stroke="#EAE9DA" stroke-width="4" stroke-miterlimit="10" stroke-linecap="round" stroke-linejoin="round"/>
<path d="M361.8 502.6H367.8" stroke="#EAE9DA" stroke-width="4" stroke-miterlimit="10" stroke-linecap="round" stroke-linejoin="round"/>
<path d="M361.8 494.6H367.8" stroke="#EAE9DA" stroke-width="4" stroke-miterlimit="10" stroke-linecap="round" stroke-linejoin="round"/>
<path d="M361.8 486.6H367.8" stroke="#EAE9DA" stroke-width="4" stroke-miterlimit="10" stroke-linecap="round" stroke-linejoin="round"/>
<path d="M361.8 478.6H367.8" stroke="#EAE9DA" stroke-width="4" stroke-miterlimit="10" stroke-linecap="round" stroke-linejoin="round"/>
<path d="M409.8 526.6H415.8" stroke="#EAE9DA" stroke-width="4" stroke-miterlimit="10" stroke-linecap="round" stroke-linejoin="round"/>
<path d="M409.8 518.6H415.8" stroke="#EAE9DA" stroke-width="4" stroke-miterlimit="10" stroke-linecap="round" stroke-linejoin="round"/>
<path d="M409.8 510.6H415.8" stroke="#EAE9DA" stroke-width="4" stroke-miterlimit="10" stroke-linecap="round" stroke-linejoin="round"/>
<path d="M409.8 502.6H415.8" stroke="#EAE9DA" stroke-width="4" stroke-miterlimit="10" stroke-linecap="round" stroke-linejoin="round"/>
<path d="M409.8 494.6H415.8" stroke="#EAE9DA" stroke-width="4" stroke-miterlimit="10" stroke-linecap="round" stroke-linejoin="round"/>
<path d="M409.8 486.6H415.8" stroke="#EAE9DA" stroke-width="4" stroke-miterlimit="10" stroke-linecap="round" stroke-linejoin="round"/>
<path d="M409.8 478.6H415.8" stroke="#EAE9DA" stroke-width="4" stroke-miterlimit="10" stroke-linecap="round" stroke-linejoin="round"/>
<path d="M405.8 531.6H371.8C369.6 531.6 367.8 529.8 367.8 527.6V477.6C367.8 475.4 369.6 473.6 371.8 473.6H405.8C408 473.6 409.8 475.4 409.8 477.6V527.6C409.8 529.8 408 531.6 405.8 531.6Z" fill="#2C5871"/>
<path d="M371.8 525.9V479.3C371.8 478.3 372.6 477.6 373.5 477.6H404.1C405.1 477.6 405.8 478.4 405.8 479.3V525.9C405.8 526.9 405 527.6 404.1 527.6H373.5C372.6 527.6 371.8 526.8 371.8 525.9Z" fill="#3D6D82"/>
<path d="M378.5 488.7V502.6V516" stroke="#EAE9DA" stroke-width="2" stroke-miterlimit="10" stroke-linecap="round" stroke-linejoin="round"/>
<path d="M382.9 494.6V510.1" stroke="#EAE9DA" stroke-miterlimit="10" stroke-linecap="round" stroke-linejoin="round"/>
<path d="M400.3 490.3V514.3" stroke="#EAE9DA" stroke-miterlimit="10" stroke-linecap="round" stroke-linejoin="round"/>
<path opacity="0.2" d="M479.9 535.6H445.9C443.7 535.6 441.9 533.8 441.9 531.6V481.6C441.9 479.4 443.7 477.6 445.9 477.6H479.9C482.1 477.6 483.9 479.4 483.9 481.6V531.6C483.9 533.8 482.2 535.6 479.9 535.6Z" fill="#2C5871"/>
<path d="M435.9 526.6H441.9" stroke="#EAE9DA" stroke-width="4" stroke-miterlimit="10" stroke-linecap="round" stroke-linejoin="round"/>
<path d="M435.9 518.6H441.9" stroke="#EAE9DA" stroke-width="4" stroke-miterlimit="10" stroke-linecap="round" stroke-linejoin="round"/>
<path d="M435.9 510.6H441.9" stroke="#EAE9DA" stroke-width="4" stroke-miterlimit="10" stroke-linecap="round" stroke-linejoin="round"/>
<path d="M435.9 502.6H441.9" stroke="#EAE9DA" stroke-width="4" stroke-miterlimit="10" stroke-linecap="round" stroke-linejoin="round"/>
<path d="M435.9 494.6H441.9" stroke="#EAE9DA" stroke-width="4" stroke-miterlimit="10" stroke-linecap="round" stroke-linejoin="round"/>
<path d="M435.9 486.6H441.9" stroke="#EAE9DA" stroke-width="4" stroke-miterlimit="10" stroke-linecap="round" stroke-linejoin="round"/>
<path d="M435.9 478.6H441.9" stroke="#EAE9DA" stroke-width="4" stroke-miterlimit="10" stroke-linecap="round" stroke-linejoin="round"/>
<path d="M483.9 526.6H489.9" stroke="#EAE9DA" stroke-width="4" stroke-miterlimit="10" stroke-linecap="round" stroke-linejoin="round"/>
<path d="M483.9 518.6H489.9" stroke="#EAE9DA" stroke-width="4" stroke-miterlimit="10" stroke-linecap="round" stroke-linejoin="round"/>
<path d="M483.9 510.6H489.9" stroke="#EAE9DA" stroke-width="4" stroke-miterlimit="10" stroke-linecap="round" stroke-linejoin="round"/>
<path d="M483.9 502.6H489.9" stroke="#EAE9DA" stroke-width="4" stroke-miterlimit="10" stroke-linecap="round" stroke-linejoin="round"/>
<path d="M483.9 494.6H489.9" stroke="#EAE9DA" stroke-width="4" stroke-miterlimit="10" stroke-linecap="round" stroke-linejoin="round"/>
<path d="M483.9 486.6H489.9" stroke="#EAE9DA" stroke-width="4" stroke-miterlimit="10" stroke-linecap="round" stroke-linejoin="round"/>
<path d="M483.9 478.6H489.9" stroke="#EAE9DA" stroke-width="4" stroke-miterlimit="10" stroke-linecap="round" stroke-linejoin="round"/>
<path d="M479.9 531.6H445.9C443.7 531.6 441.9 529.8 441.9 527.6V477.6C441.9 475.4 443.7 473.6 445.9 473.6H479.9C482.1 473.6 483.9 475.4 483.9 477.6V527.6C483.9 529.8 482.2 531.6 479.9 531.6Z" fill="#2C5871"/>
<path d="M445.9 525.9V479.3C445.9 478.3 446.7 477.6 447.6 477.6H478.2C479.2 477.6 479.9 478.4 479.9 479.3V525.9C479.9 526.9 479.1 527.6 478.2 527.6H447.6C446.7 527.6 445.9 526.8 445.9 525.9Z" fill="#3D6D82"/>
<path d="M452.6 488.7V502.6V516" stroke="#EAE9DA" stroke-width="2" stroke-miterlimit="10" stroke-linecap="round" stroke-linejoin="round"/>
<path d="M457.1 494.6V510.1" stroke="#EAE9DA" stroke-miterlimit="10" stroke-linecap="round" stroke-linejoin="round"/>
<path d="M474.4 490.3V514.3" stroke="#EAE9DA" stroke-miterlimit="10" stroke-linecap="round" stroke-linejoin="round"/>
<path opacity="0.2" d="M554.1 535.6H520.1C517.9 535.6 516.1 533.8 516.1 531.6V481.6C516.1 479.4 517.9 477.6 520.1 477.6H554.1C556.3 477.6 558.1 479.4 558.1 481.6V531.6C558.1 533.8 556.3 535.6 554.1 535.6Z" fill="#2C5871"/>
<path d="M510.1 526.6H516.1" stroke="#EAE9DA" stroke-width="4" stroke-miterlimit="10" stroke-linecap="round" stroke-linejoin="round"/>
<path d="M510.1 518.6H516.1" stroke="#EAE9DA" stroke-width="4" stroke-miterlimit="10" stroke-linecap="round" stroke-linejoin="round"/>
<path d="M510.1 510.6H516.1" stroke="#EAE9DA" stroke-width="4" stroke-miterlimit="10" stroke-linecap="round" stroke-linejoin="round"/>
<path d="M510.1 502.6H516.1" stroke="#EAE9DA" stroke-width="4" stroke-miterlimit="10" stroke-linecap="round" stroke-linejoin="round"/>
<path d="M510.1 494.6H516.1" stroke="#EAE9DA" stroke-width="4" stroke-miterlimit="10" stroke-linecap="round" stroke-linejoin="round"/>
<path d="M510.1 486.6H516.1" stroke="#EAE9DA" stroke-width="4" stroke-miterlimit="10" stroke-linecap="round" stroke-linejoin="round"/>
<path d="M510.1 478.6H516.1" stroke="#EAE9DA" stroke-width="4" stroke-miterlimit="10" stroke-linecap="round" stroke-linejoin="round"/>
<path d="M558.1 526.6H564.1" stroke="#EAE9DA" stroke-width="4" stroke-miterlimit="10" stroke-linecap="round" stroke-linejoin="round"/>
<path d="M558.1 518.6H564.1" stroke="#EAE9DA" stroke-width="4" stroke-miterlimit="10" stroke-linecap="round" stroke-linejoin="round"/>
<path d="M558.1 510.6H564.1" stroke="#EAE9DA" stroke-width="4" stroke-miterlimit="10" stroke-linecap="round" stroke-linejoin="round"/>
<path d="M558.1 502.6H564.1" stroke="#EAE9DA" stroke-width="4" stroke-miterlimit="10" stroke-linecap="round" stroke-linejoin="round"/>
<path d="M558.1 494.6H564.1" stroke="#EAE9DA" stroke-width="4" stroke-miterlimit="10" stroke-linecap="round" stroke-linejoin="round"/>
<path d="M558.1 486.6H564.1" stroke="#EAE9DA" stroke-width="4" stroke-miterlimit="10" stroke-linecap="round" stroke-linejoin="round"/>
<path d="M558.1 478.6H564.1" stroke="#EAE9DA" stroke-width="4" stroke-miterlimit="10" stroke-linecap="round" stroke-linejoin="round"/>
<path d="M554.1 531.6H520.1C517.9 531.6 516.1 529.8 516.1 527.6V477.6C516.1 475.4 517.9 473.6 520.1 473.6H554.1C556.3 473.6 558.1 475.4 558.1 477.6V527.6C558.1 529.8 556.3 531.6 554.1 531.6Z" fill="#2C5871"/>
<path d="M520.1 525.9V479.3C520.1 478.3 520.9 477.6 521.8 477.6H552.4C553.4 477.6 554.1 478.4 554.1 479.3V525.9C554.1 526.9 553.3 527.6 552.4 527.6H521.8C520.8 527.6 520.1 526.8 520.1 525.9Z" fill="#3D6D82"/>
<path d="M526.8 488.7V502.6V516" stroke="#EAE9DA" stroke-width="2" stroke-miterlimit="10" stroke-linecap="round" stroke-linejoin="round"/>
<path d="M531.2 494.6V510.1" stroke="#EAE9DA" stroke-miterlimit="10" stroke-linecap="round" stroke-linejoin="round"/>
<path d="M548.6 490.3V514.3" stroke="#EAE9DA" stroke-miterlimit="10" stroke-linecap="round" stroke-linejoin="round"/>
<path opacity="0.2" d="M628.2 535.6H594.2C592 535.6 590.2 533.8 590.2 531.6V481.6C590.2 479.4 592 477.6 594.2 477.6H628.2C630.4 477.6 632.2 479.4 632.2 481.6V531.6C632.2 533.8 630.4 535.6 628.2 535.6Z" fill="#2C5871"/>
<path d="M584.2 526.6H590.2" stroke="#EAE9DA" stroke-width="4" stroke-miterlimit="10" stroke-linecap="round" stroke-linejoin="round"/>
<path d="M584.2 518.6H590.2" stroke="#EAE9DA" stroke-width="4" stroke-miterlimit="10" stroke-linecap="round" stroke-linejoin="round"/>
<path d="M584.2 510.6H590.2" stroke="#EAE9DA" stroke-width="4" stroke-miterlimit="10" stroke-linecap="round" stroke-linejoin="round"/>
<path d="M584.2 502.6H590.2" stroke="#EAE9DA" stroke-width="4" stroke-miterlimit="10" stroke-linecap="round" stroke-linejoin="round"/>
<path d="M584.2 494.6H590.2" stroke="#EAE9DA" stroke-width="4" stroke-miterlimit="10" stroke-linecap="round" stroke-linejoin="round"/>
<path d="M584.2 486.6H590.2" stroke="#EAE9DA" stroke-width="4" stroke-miterlimit="10" stroke-linecap="round" stroke-linejoin="round"/>
<path d="M584.2 478.6H590.2" stroke="#EAE9DA" stroke-width="4" stroke-miterlimit="10" stroke-linecap="round" stroke-linejoin="round"/>
<path d="M632.2 526.6H638.2" stroke="#EAE9DA" stroke-width="4" stroke-miterlimit="10" stroke-linecap="round" stroke-linejoin="round"/>
<path d="M632.2 518.6H638.2" stroke="#EAE9DA" stroke-width="4" stroke-miterlimit="10" stroke-linecap="round" stroke-linejoin="round"/>
<path d="M632.2 510.6H638.2" stroke="#EAE9DA" stroke-width="4" stroke-miterlimit="10" stroke-linecap="round" stroke-linejoin="round"/>
<path d="M632.2 502.6H638.2" stroke="#EAE9DA" stroke-width="4" stroke-miterlimit="10" stroke-linecap="round" stroke-linejoin="round"/>
<path d="M632.2 494.6H638.2" stroke="#EAE9DA" stroke-width="4" stroke-miterlimit="10" stroke-linecap="round" stroke-linejoin="round"/>
<path d="M632.2 486.6H638.2" stroke="#EAE9DA" stroke-width="4" stroke-miterlimit="10" stroke-linecap="round" stroke-linejoin="round"/>
<path d="M632.2 478.6H638.2" stroke="#EAE9DA" stroke-width="4" stroke-miterlimit="10" stroke-linecap="round" stroke-linejoin="round"/>
<path d="M628.2 531.6H594.2C592 531.6 590.2 529.8 590.2 527.6V477.6C590.2 475.4 592 473.6 594.2 473.6H628.2C630.4 473.6 632.2 475.4 632.2 477.6V527.6C632.2 529.8 630.4 531.6 628.2 531.6Z" fill="#2C5871"/>
<path d="M594.2 525.9V479.3C594.2 478.3 595 477.6 595.9 477.6H626.5C627.5 477.6 628.2 478.4 628.2 479.3V525.9C628.2 526.9 627.4 527.6 626.5 527.6H595.9C594.9 527.6 594.2 526.8 594.2 525.9Z" fill="#3D6D82"/>
<path d="M600.9 488.7V502.6V516" stroke="#EAE9DA" stroke-width="2" stroke-miterlimit="10" stroke-linecap="round" stroke-linejoin="round"/>
<path d="M605.3 494.6V510.1" stroke="#EAE9DA" stroke-miterlimit="10" stroke-linecap="round" stroke-linejoin="round"/>
<path d="M622.7 490.3V514.3" stroke="#EAE9DA" stroke-miterlimit="10" stroke-linecap="round" stroke-linejoin="round"/>
</svg>
